<?xml version="1.0" encoding="UTF-8"?> <svg xmlns="http://www.w3.org/2000/svg" width="320" height="108" viewBox="0 0 320 108" fill="none"> <path fill-rule="evenodd" clip-rule="evenodd" d="M94.5307 8.39387L235.339 8L229.546 35.9934L88.4292 36.3981L94.5307 8.39387ZM98.9109 31.786C99.6414 31.829 100.278 31.2821 100.35 30.5489L101.968 23.0075L107.398 22.9626C108.929 23.0425 110.448 22.6271 111.732 21.7771C112.86 20.9426 113.627 19.7037 113.872 18.3185C114.193 16.8388 113.889 15.7587 112.969 15.0866C112.05 14.4144 110.397 14.0588 108.028 14.0784L102.706 14.0804C102.373 14.0709 102.05 14.1943 101.806 14.4235C101.542 14.6968 101.366 15.0434 101.301 15.418L98.0143 30.5514C97.8335 31.3753 98.1352 31.7924 98.9109 31.786ZM110.275 20.2617C109.075 20.6485 107.812 20.8013 106.557 20.7121L102.461 20.7459L103.406 16.3741L107.502 16.3403C108.42 16.3145 109.339 16.3744 110.246 16.519C110.7 16.5547 111.117 16.7832 111.391 17.1473C111.58 17.5784 111.605 18.0645 111.463 18.5147C111.373 19.2558 110.93 19.9082 110.275 20.2617ZM129.059 25.3243C128.794 26.5981 128.226 27.7895 127.403 28.7959C126.599 29.7919 125.568 30.578 124.399 31.0868C123.144 31.6381 121.788 31.9126 120.422 31.8918C119.164 31.9368 117.917 31.6582 116.799 31.0825C115.871 30.591 115.155 29.7726 114.79 28.7827C114.412 27.6665 114.367 26.4619 114.661 25.3174L115.697 20.6004C115.97 19.3293 116.538 18.1397 117.354 17.1289C118.16 16.1357 119.19 15.3501 120.358 14.838C121.613 14.2906 122.968 14.0162 124.334 14.033C125.591 13.9928 126.837 14.2711 127.957 14.8423C128.884 15.3323 129.598 16.1473 129.967 17.1337C130.344 18.2528 130.389 19.4599 130.095 20.6073L129.059 25.3243ZM123.832 16.2864C122.464 16.2269 121.111 16.6214 119.982 17.4093C118.956 18.2227 118.264 19.3888 118.041 20.6817L117.047 25.2389C116.685 26.3567 116.885 27.5791 117.583 28.5161C118.245 29.266 119.364 29.6428 120.924 29.6383C122.294 29.708 123.65 29.3126 124.774 28.5155C125.808 27.7162 126.514 26.5628 126.757 25.2762L127.743 20.719C128.083 19.6092 127.904 18.4063 127.257 17.4499C126.587 16.7001 125.451 16.3234 123.849 16.3198L123.832 16.2864ZM134.14 31.224C135.497 31.5951 136.904 31.7589 138.312 31.7097L142.274 31.7356C143.211 31.7862 144.138 31.5022 144.89 30.9337C145.596 30.2831 146.063 29.4131 146.217 28.4647C146.43 27.4646 146.153 26.9299 145.378 26.9364C145.024 26.9281 144.682 27.064 144.428 27.3133C144.151 27.6006 143.966 27.9647 143.898 28.3581C143.856 28.6939 143.711 29.0089 143.484 29.2591C143.209 29.4296 142.888 29.5086 142.567 29.4849L138.838 29.5157C137.79 29.5455 136.743 29.4727 135.71 29.2982C135.2 29.2459 134.754 28.9323 134.531 28.469C134.391 27.8484 134.412 27.2011 134.591 26.5893L136.128 19.521C136.239 18.8533 136.49 18.2164 136.864 17.6524C137.217 17.2124 137.712 16.9112 138.262 16.8019C139.207 16.6339 140.165 16.5641 141.123 16.5937L145.352 16.5587C145.802 16.555 146.069 16.6367 146.187 16.7867C146.307 17.073 146.308 17.3962 146.189 17.6844C146.081 18.0316 146.109 18.4068 146.268 18.7324C146.439 18.9947 146.742 19.1379 147.053 19.1035C147.832 19.1026 148.331 18.6035 148.55 17.6062C148.831 16.7682 148.737 15.8502 148.291 15.0914C147.705 14.48 146.87 14.1772 146.028 14.2712L141.599 14.3078C140.235 14.2663 138.871 14.4331 137.555 14.8027C136.584 15.069 135.714 15.6229 135.058 16.3921C134.398 17.2793 133.953 18.3087 133.758 19.3979L132.231 26.6088C131.934 27.601 131.937 28.6584 132.241 29.6456C132.607 30.4309 133.303 31.0095 134.14 31.224ZM155.842 31.7668C154.434 31.816 153.027 31.6523 151.67 31.2812C150.833 31.0667 150.137 30.4882 149.771 29.7029C149.468 28.7155 149.465 27.6584 149.761 26.666L151.314 19.4887C151.507 18.3976 151.955 17.3673 152.622 16.4829C153.278 15.7136 154.148 15.1598 155.119 14.8934C156.438 14.5239 157.804 14.357 159.171 14.3985L163.592 14.362C164.433 14.2666 165.27 14.5697 165.855 15.1822C166.305 15.9394 166.4 16.8594 166.113 17.6969C165.894 18.6942 165.395 19.1933 164.617 19.1941C164.306 19.2286 164.003 19.0854 163.832 18.8231C163.673 18.4975 163.645 18.1223 163.753 17.7751C163.871 17.4869 163.87 17.1637 163.75 16.8775C163.633 16.7274 163.366 16.6457 162.915 16.6495L158.678 16.6845C157.723 16.6544 156.767 16.7242 155.826 16.8926C155.272 17.0001 154.774 17.3015 154.419 17.7432C154.045 18.3072 153.794 18.9441 153.683 19.6117L152.147 26.6882C151.964 27.297 151.946 27.9429 152.094 28.5595C152.311 29.0249 152.756 29.34 153.265 29.3888C154.298 29.5624 155.346 29.6352 156.393 29.6062L160.13 29.5754C160.45 29.6016 160.77 29.5192 161.039 29.3413C161.272 29.0981 161.417 28.7837 161.453 28.4486C161.524 28.0544 161.712 27.6904 161.992 27.4039C162.242 27.1551 162.582 27.019 162.933 27.027C163.709 27.0205 163.986 27.5552 163.772 28.5553C163.584 29.4899 163.091 30.3357 162.37 30.9578C161.618 31.5262 160.691 31.8101 159.754 31.7597L155.842 31.7668ZM170.05 15.6016L166.764 30.7277L166.789 30.7276C166.575 31.585 166.868 32.0187 167.627 32.0124C167.877 32.027 168.127 31.9758 168.352 31.8638C168.621 31.7032 168.863 31.5 169.068 31.2624L181.477 18.3257L178.782 30.7627C178.61 31.5693 178.912 31.9779 179.687 31.9715C180.434 32.0042 181.075 31.4344 181.134 30.6845L184.42 15.5583C184.592 14.6845 184.325 14.2338 183.582 14.2399C183.061 14.2748 182.577 14.5174 182.233 14.9137L169.674 28.011L172.344 15.6833C172.574 14.7587 172.281 14.283 171.505 14.2894C170.749 14.2617 170.105 14.8426 170.05 15.6016ZM196.231 30.8368L197.652 24.2666L193.724 24.2991C193.036 24.2607 192.349 24.4052 191.732 24.7181C191.198 25.0538 190.775 25.5422 190.52 26.1204L189.286 28.6466C188.788 29.6396 188.072 30.5061 187.192 31.1798C186.447 31.7772 185.527 32.112 184.576 32.1324C183.609 32.1403 183.208 31.7579 183.371 31.0018C183.536 30.2455 184.094 29.9055 185.036 29.906C185.43 29.8788 185.8 29.7123 186.086 29.4362C186.423 29.1774 186.705 28.8526 186.917 28.4816L188.283 25.753C188.702 24.9552 189.283 24.2535 189.986 23.6925C188.282 22.8848 187.649 21.4727 188.086 19.4562C188.368 17.9242 189.286 16.5829 190.611 15.7703C192.225 14.8699 194.053 14.434 195.893 14.5106L201.014 14.5186C201.756 14.5124 202.033 14.9714 201.852 15.8871L198.608 30.8339C198.543 31.5571 197.922 32.1032 197.202 32.0699C196.369 32.0768 196.067 31.6601 196.248 30.8367L196.231 30.8368ZM199.286 16.7637L195.425 16.7956C194.236 16.7289 193.047 16.9517 191.958 17.4449C191.172 17.863 190.62 18.6233 190.463 19.5036C190.094 21.184 191.374 22.0541 194.283 22.0468L198.153 22.0148L199.286 16.7637ZM213.182 24.5535C213.113 24.7823 213.157 25.0297 213.301 25.2199C213.466 25.4 213.707 25.4927 213.952 25.4701L224.268 25.4774C224.545 25.4886 224.818 25.405 225.042 25.2405C225.251 25.0641 225.391 24.821 225.439 24.5534C225.518 24.3233 225.483 24.0699 225.346 23.8704C225.168 23.6957 224.92 23.6099 224.67 23.6369L214.361 23.6296C214.087 23.6234 213.818 23.7066 213.596 23.8665C213.378 24.0374 213.229 24.2821 213.182 24.5535Z" fill="white"></path> <path fill-rule="evenodd" clip-rule="evenodd" d="M113.185 39.5678L107.025 67.9222L222.837 67.5848L228.988 39.2305L113.185 39.5678ZM123.196 63.1586C121.788 63.2121 120.381 63.0484 119.024 62.673C118.189 62.4553 117.494 61.8778 117.125 61.0947C116.823 60.1101 116.819 59.0558 117.115 58.0662L118.668 50.8804C118.864 49.7905 119.312 48.7608 119.976 47.8745C120.621 47.1124 121.475 46.5592 122.431 46.2854C123.751 45.92 125.117 45.7531 126.483 45.7904L130.912 45.7538C131.752 45.6599 132.585 45.9631 133.167 46.5742C133.624 47.3291 133.719 48.2522 133.426 49.0888C133.204 50.089 132.714 50.5881 131.929 50.5862C131.621 50.6174 131.322 50.4746 131.152 50.2151C130.995 49.8894 130.964 49.5158 131.066 49.1672C131.184 48.8789 131.183 48.5557 131.063 48.2695C130.954 48.1194 130.678 48.0462 130.228 48.0414L125.999 48.0764C125.041 48.0483 124.082 48.1209 123.139 48.293C122.591 48.3893 122.093 48.6754 121.731 49.1017C121.358 49.6657 121.107 50.3026 120.995 50.9702L119.467 58.0468C119.279 58.6543 119.258 59.3012 119.407 59.918C119.625 60.3859 120.073 60.7014 120.586 60.7472C121.615 60.9257 122.661 60.9986 123.706 60.9647L127.443 60.9339C127.762 60.962 128.081 60.8826 128.351 60.7083C128.582 60.4595 128.73 60.1442 128.774 59.8071C128.841 59.4132 129.026 59.0489 129.304 58.7625C129.557 58.5177 129.895 58.3823 130.245 58.3856C131.021 58.3791 131.306 58.9136 131.084 59.9139C130.936 60.8641 130.468 61.7357 129.758 62.3829C129.008 62.95 128.084 63.2339 127.15 63.1847L123.196 63.1586ZM137.862 63.2353C138.127 63.5212 138.51 63.6668 138.898 63.6296C139.319 63.6308 139.73 63.4918 140.065 63.2338C140.396 62.9897 140.627 62.6322 140.713 62.2297L143.722 48.3553L147.511 48.324C148.358 48.4676 149.17 47.9126 149.351 47.0666C149.454 46.7353 149.398 46.3756 149.198 46.0942C148.891 45.786 148.46 45.6353 148.028 45.6842L137.412 45.6796C136.988 45.6642 136.57 45.7852 136.219 46.0251C135.903 46.2526 135.681 46.5893 135.596 46.9704C135.499 47.3277 135.588 47.7093 135.833 47.9841C136.13 48.2504 136.522 48.3834 136.92 48.3528L140.675 48.3217L137.683 62.1456C137.568 62.5177 137.635 62.9216 137.862 63.2353ZM150.86 62.245C150.788 62.9772 150.15 63.5215 149.421 63.4738C148.645 63.4801 148.344 63.0631 148.516 62.2392L151.803 47.1058C151.868 46.7312 152.044 46.3845 152.308 46.1114C152.551 45.8805 152.875 45.7569 153.208 45.7682L158.521 45.7243C160.901 45.7046 162.551 46.0407 163.471 46.7324C164.391 47.4046 164.695 48.4763 164.374 49.9643C164.127 51.3489 163.361 52.5873 162.234 53.423C160.959 54.2576 159.457 54.6692 157.942 54.5997L152.503 54.628L150.86 62.245ZM157.084 52.4081C158.34 52.5003 159.603 52.3445 160.802 51.9494C161.456 51.601 161.898 50.9497 161.981 50.2107C162.125 49.7616 162.103 49.2756 161.918 48.8433C161.645 48.476 161.229 48.2443 160.773 48.2067C159.865 48.0698 158.947 48.0128 158.028 48.0363L153.933 48.0701L152.988 52.4335L157.084 52.4081ZM178.948 62.1295L175.799 45.9661L173.297 45.9617L163.157 62.1426C163.054 62.3563 162.979 62.5827 162.934 62.8157C162.875 63.0601 162.952 63.3168 163.136 63.4855C163.333 63.6882 163.606 63.7958 163.888 63.7814C164.466 63.7584 164.991 63.4366 165.278 62.9307L168.141 58.2911L175.649 58.2961L176.497 62.9387C176.552 63.4481 177.002 63.8177 177.511 63.7695C177.828 63.7676 178.136 63.6652 178.393 63.4769C178.636 63.3207 178.813 63.0801 178.892 62.8014C178.944 62.5814 178.963 62.3548 178.948 62.1295ZM169.551 56.0135L173.783 49.3399L175.182 56.0172L169.551 56.0135ZM183.965 62.2964C183.906 63.0463 183.265 63.6159 182.518 63.5834C181.743 63.5897 181.44 63.1561 181.629 62.2989L184.916 47.1726C185.105 46.3322 185.571 45.8587 186.312 45.8608C187.055 45.8631 187.44 46.2961 187.252 47.1785L186.011 52.9348L195.694 52.9387L196.943 47.1823C196.998 46.422 197.64 45.8387 198.398 45.8616C199.174 45.8553 199.467 46.3058 199.279 47.1797L195.992 62.306C195.929 63.0538 195.29 63.6212 194.545 63.593C193.77 63.5995 193.467 63.1657 193.657 62.3001L195.201 55.1741L185.509 55.1703L183.965 62.2964ZM214.55 62.2576L211.402 46.086L208.909 46.1234L198.751 62.2875C198.65 62.4988 198.575 62.7223 198.529 62.9523C198.47 63.1991 198.547 63.4581 198.731 63.6305C198.933 63.8277 199.209 63.9317 199.492 63.918C200.066 63.8922 200.588 63.5706 200.873 63.0673L203.744 58.4276L211.251 58.4327L212.101 63.0668C212.16 63.5739 212.607 63.9412 213.113 63.8977C213.431 63.8927 213.74 63.7873 213.996 63.5966C214.24 63.4456 214.418 63.207 214.494 62.9295C214.546 62.7094 214.566 62.483 214.55 62.2576ZM205.154 56.1332L209.386 49.4596L210.785 56.1369L205.154 56.1332Z" fill="white"></path> <path fill-rule="evenodd" clip-rule="evenodd" d="M46.0941 71.2253L40 98.9999L274.312 98.3439L280.405 70.561L46.0941 71.2253ZM52.9639 77.3047C53.0322 76.9293 53.2113 76.5826 53.4778 76.3102C53.7174 76.0798 54.0389 75.9561 54.3692 75.9672L59.6073 75.9238C60.9113 75.8815 62.2135 76.0347 63.4708 76.3787C64.2653 76.5832 64.9432 77.1007 65.3523 77.815C65.6838 78.6382 65.7308 79.5508 65.486 80.407C65.2748 81.5239 64.6893 82.536 63.8272 83.274C65.1062 84.1025 65.503 85.5511 65.043 87.6949L64.9279 88.2077C64.7366 89.3149 64.2726 90.3576 63.5784 91.2401C62.8909 92.0095 61.9926 92.5573 60.9978 92.8139C59.5753 93.1775 58.1103 93.3393 56.6453 93.2947L50.5729 93.2946C50.2812 93.3185 49.9991 93.1872 49.8294 92.9482C49.6785 92.6411 49.6505 92.2871 49.7511 91.9585L52.9639 77.3047ZM53.6483 84.9694L52.3256 91.0898L57.1634 91.0498C58.229 91.0835 59.2959 91.0129 60.3489 90.8388C60.9265 90.755 61.4601 90.4787 61.8644 90.0541C62.2582 89.5073 62.5189 88.8756 62.6257 88.21L62.7161 87.7812C62.8974 87.1869 62.9211 86.5561 62.7851 85.9513C62.5991 85.5106 62.2016 85.1972 61.7314 85.1207C60.83 84.9505 59.9124 84.8793 58.9947 84.9084L53.6483 84.9694ZM58.1451 82.7251C59.099 82.7431 60.0532 82.6791 60.9971 82.5337C61.5337 82.4659 62.04 82.2431 62.4547 81.8922C62.8081 81.5139 63.0418 81.0386 63.1259 80.5272C63.2707 80.0795 63.2423 79.5941 63.0462 79.1683C62.7462 78.8131 62.3214 78.5884 61.8597 78.5403C60.9444 78.393 60.0173 78.3305 59.0899 78.3534L55.0779 78.3865L54.1331 82.7582L58.1451 82.7251ZM80.9101 90.5508C81.7279 89.541 82.2958 88.351 82.5669 87.0792L83.5857 82.3625C83.8823 81.2159 83.8407 80.0087 83.4658 78.8888C83.1024 77.8995 82.3862 77.0829 81.4562 76.5973C80.3346 76.0227 79.0852 75.7442 77.8248 75.7881C76.4588 75.7688 75.1031 76.0432 73.8484 76.5931C72.6799 77.0997 71.6514 77.8862 70.8529 78.8839C70.0319 79.8915 69.4635 81.0825 69.1961 82.3555L68.169 87.0724C67.8788 88.2202 67.9234 89.4263 68.2972 90.546C68.6634 91.5336 69.3788 92.3493 70.3068 92.8374C71.4291 93.4101 72.6779 93.6883 73.9382 93.6467C75.3011 93.6625 76.6534 93.3883 77.9062 92.8417C79.075 92.3316 80.1054 91.5458 80.9101 90.5508ZM73.4898 79.1643C74.6168 78.373 75.9707 77.9781 77.34 78.0413L77.3566 78.0077C78.9499 78.0113 80.0856 78.3796 80.7555 79.1377C81.4105 80.0909 81.5928 81.2961 81.2501 82.407L80.2642 86.964C80.0321 88.2753 79.3221 89.4546 78.2732 90.2705C77.1461 91.0619 75.7923 91.4568 74.423 91.3934C72.8713 91.3895 71.7523 91.021 71.0824 90.2628C70.383 89.3292 70.1857 88.1073 70.5544 86.994L71.5403 82.4368C71.7694 81.144 72.4635 79.979 73.4898 79.1643ZM94.9575 83.3661C95.8716 83.3969 96.7776 83.1715 97.5742 82.715C98.2284 82.3466 98.6989 81.7179 98.8696 80.9842C99.064 80.2857 98.8405 79.5389 98.2961 79.0674C97.6263 78.5383 96.7853 78.2765 95.9333 78.3317L90.8372 78.3235C90.5141 78.2942 90.1897 78.3704 89.9121 78.541C89.6849 78.807 89.5435 79.1359 89.5065 79.4841L89.3997 79.9632C89.2026 80.8712 88.7119 81.3283 87.9363 81.3263C87.1606 81.3243 86.8672 80.8736 87.0977 79.9655C87.2538 78.8457 87.7317 77.7949 88.4722 76.9418C89.2273 76.3172 90.1913 76.0087 91.1633 76.0804L96.6515 76.0854C97.6257 76.0577 98.5917 76.2595 99.4725 76.6745C100.208 77.0142 100.8 77.6032 101.146 78.339C101.467 79.119 101.529 79.9839 101.321 80.8046C101.001 82.3503 100.065 83.6991 98.7313 84.5349C99.7091 85.5872 100.062 87.0822 99.6617 88.4709C99.4528 89.4067 99.0141 90.2759 98.3857 90.9989C97.727 91.7669 96.905 92.3761 95.9811 92.7809C95.02 93.2103 93.9803 93.4305 92.9306 93.427L87.4426 93.422C86.2582 93.4318 85.4815 93.1278 85.1293 92.5516C84.7771 91.9756 84.7487 90.9605 85.061 89.5314C85.2581 88.6236 85.7404 88.1664 86.5244 88.1684C87.3083 88.1703 87.5934 88.621 87.3629 89.5376L87.2561 90.0168C87.1576 90.4958 87.1587 90.8148 87.2592 90.9566C87.3597 91.0983 87.6436 91.1715 88.094 91.1677L93.1901 91.1676C94.1544 91.1786 95.098 90.8765 95.8811 90.3063C96.6123 89.8232 97.1324 89.0769 97.3338 88.2217C97.5241 87.5311 97.3195 86.7932 96.8021 86.3044C96.1587 85.7745 95.3378 85.5113 94.506 85.5683L92.1123 85.588C91.1449 85.596 90.7432 85.2134 90.9076 84.4568C91.0718 83.7003 91.6378 83.3347 92.5719 83.3354L94.9575 83.3661ZM111.36 86.0358C111.718 86.0282 112.063 85.8948 112.335 85.6588L117.795 79.8263L115.092 92.3124C114.862 93.2202 115.147 93.6875 115.931 93.681C116.676 93.7093 117.314 93.1419 117.378 92.3942L120.664 77.2696C120.869 76.3955 120.584 75.9534 119.825 75.9596C119.316 75.9936 118.842 76.2335 118.51 76.6248L111.861 83.5909L108.218 76.651C108.046 76.2249 107.632 75.949 107.173 75.955C106.431 75.9528 105.966 76.4264 105.777 77.2667L102.491 92.3915C102.31 93.2485 102.612 93.6738 103.387 93.6756C104.163 93.6777 104.654 93.2207 104.851 92.3049L107.553 79.8186L110.525 85.6654C110.73 85.9139 111.039 86.0512 111.36 86.0358ZM136.694 87.2508C136.425 88.5232 135.857 89.7136 135.037 90.7224C134.234 91.7152 133.207 92.5007 132.042 93.0131C130.785 93.5551 129.431 93.8292 128.066 93.8181C126.805 93.8597 125.556 93.5814 124.434 93.0089C123.508 92.519 122.793 91.7039 122.425 90.7175C122.05 89.5975 122.008 88.3905 122.305 87.2439L123.349 82.5604C123.616 81.2849 124.184 80.0913 125.005 79.0804C125.809 78.0876 126.836 77.3021 128.001 76.7897C129.257 76.2466 130.612 75.9751 131.977 75.993C133.238 75.948 134.487 76.2266 135.609 76.8024C136.535 77.2922 137.25 78.1074 137.618 79.0937C137.993 80.2137 138.034 81.4206 137.738 82.5674L136.694 87.2508ZM131.467 78.2046C130.097 78.1437 128.743 78.5415 127.617 79.3359C126.59 80.1458 125.895 81.3088 125.668 82.6L124.682 87.1654C124.313 88.2788 124.51 89.5007 125.21 90.4342C126.114 91.2676 127.326 91.678 128.55 91.5648C129.921 91.6257 131.275 91.2279 132.4 90.4335C133.437 89.6278 134.141 88.4643 134.375 87.1692L135.361 82.6038C135.701 81.4928 135.519 80.2888 134.866 79.3347C134.196 78.5849 133.061 78.2081 131.467 78.2046ZM149.729 92.5582L151.01 86.6824L151.11 86.6983C151.848 86.6448 152.577 86.8857 153.137 87.3687C153.445 87.7176 153.667 88.1348 153.783 88.5867C153.924 89.2078 154.032 89.8363 154.106 90.4693C154.116 90.7133 154.139 90.9564 154.175 91.1977C154.2 91.9331 154.5 92.6309 155.015 93.1514C155.571 93.6339 156.291 93.8829 157.027 93.847C158.027 93.8471 158.609 93.4736 158.773 92.7182C158.871 92.418 158.781 92.089 158.545 91.8822C158.27 91.6604 157.922 91.5498 157.569 91.5718C157.419 91.5731 157.302 91.4651 157.218 91.248C157.122 90.9456 157.087 90.6269 157.115 90.3104C157.097 89.321 156.937 88.3401 156.638 87.3984C156.493 86.8795 156.229 86.4025 155.867 86.0055C155.492 85.5741 155.031 85.2268 154.513 84.9861C155.248 84.2625 155.936 83.4927 156.573 82.6817C157.264 81.773 158.01 80.9079 158.807 80.0909C159.172 79.6001 159.701 79.2568 160.295 79.1233C160.693 79.1289 161.083 79.018 161.42 78.804C161.696 78.6181 161.89 78.3306 161.959 78.0036C162.046 77.7047 161.961 77.383 161.739 77.1675C161.463 76.9407 161.111 76.8296 160.755 76.8572C159.924 76.9022 159.122 77.1818 158.44 77.6639C157.715 78.1481 157.048 78.716 156.453 79.3561C155.855 79.9979 155.141 80.8166 154.311 81.8204C153.589 82.6895 153.024 83.3142 152.65 83.6943C152.152 84.176 151.794 84.4135 151.577 84.4154L151.411 84.4168L152.749 78.2053C152.937 77.3323 152.644 76.8823 151.811 76.8892C151.458 76.8881 151.116 77.0127 150.845 77.2407C150.564 77.491 150.374 77.8292 150.306 78.2003L148.96 84.4119L148.793 84.4133C148.535 84.4154 148.284 84.1744 148.057 83.6904C147.72 83.0922 147.438 82.4633 147.218 81.8119C146.881 80.9769 146.571 80.2337 146.285 79.5909C145.943 78.7979 145.414 78.1008 144.745 77.5591C144.18 77.1087 143.481 76.8637 142.758 76.8634C141.869 76.8595 141.345 77.2241 141.187 77.9572C141.093 78.2515 141.168 78.5727 141.381 78.7934C141.654 79.0146 141.997 79.1305 142.349 79.1206C142.749 79.1509 143.092 79.433 143.403 80.0587C143.713 80.6846 144.083 81.553 144.503 82.6807C144.773 83.4846 145.128 84.2568 145.561 84.9846C144.645 85.3673 143.814 85.9297 143.116 86.6386C142.441 87.2995 141.88 88.0688 141.456 88.9147C141.267 89.3727 140.917 89.9852 140.489 90.7369L140.429 90.8419C140.331 91.041 140.203 91.2231 140.047 91.3813C139.961 91.4809 139.844 91.5471 139.715 91.5684C138.773 91.5679 138.216 91.9411 138.051 92.6882C137.962 92.9854 138.043 93.307 138.262 93.5243C138.542 93.7508 138.897 93.8617 139.255 93.8346C140.074 93.8316 140.876 93.5892 141.562 93.1368C142.296 92.6359 142.902 91.9675 143.331 91.1866C143.81 90.287 144.189 89.6135 144.453 89.1439L144.483 89.0908C144.871 88.3583 145.444 87.741 146.144 87.3007C146.814 86.8907 147.585 86.6782 148.367 86.6874L148.559 86.6859L147.278 92.6036C147.208 92.8891 147.254 93.1905 147.406 93.4405C147.591 93.68 147.881 93.8124 148.183 93.7943C148.543 93.7969 148.893 93.6725 149.173 93.4427C149.46 93.2257 149.657 92.9111 149.729 92.5582ZM164.335 92.6107C164.275 93.3606 163.634 93.9304 162.888 93.8977C162.112 93.9041 161.81 93.4704 161.999 92.6133L165.285 77.4869C165.474 76.6467 165.94 76.173 166.682 76.1752C167.425 76.1775 167.818 76.6105 167.621 77.4845L166.372 83.2493L176.064 83.2531L177.313 77.4883C177.368 76.7292 178.011 76.1483 178.768 76.176C179.544 76.1697 179.845 76.6117 179.648 77.4941L176.361 92.6203C176.302 93.3702 175.661 93.94 174.914 93.9073C174.139 93.9138 173.837 93.48 174.027 92.6229L175.57 85.4968L165.879 85.493L164.335 92.6107ZM193.938 90.9276C194.757 89.919 195.325 88.7286 195.594 87.456L196.613 82.7393C196.902 81.5914 196.858 80.3854 196.484 79.2657C196.118 78.278 195.403 77.4623 194.474 76.9742C193.355 76.4029 192.109 76.1246 190.851 76.1649C189.486 76.1481 188.131 76.4224 186.875 76.9699C185.706 77.48 184.676 78.2658 183.871 79.2608C183.054 80.2705 182.486 81.4605 182.214 82.7324L181.196 87.4491C180.901 88.5966 180.946 89.8038 181.324 90.9228C181.68 91.9141 182.395 92.7323 183.325 93.2143C184.447 93.789 185.697 94.0674 186.956 94.0235C188.323 94.0385 189.677 93.7643 190.933 93.2185C192.103 92.7099 193.133 91.9236 193.938 90.9276ZM186.517 79.5411C187.644 78.7497 188.997 78.3549 190.367 78.4181L190.351 78.4182C191.943 78.4219 193.08 78.7901 193.758 79.5484C194.405 80.5049 194.584 81.7076 194.244 82.8175L193.258 87.3747C193.029 88.6675 192.335 89.8326 191.309 90.6472C190.182 91.4385 188.827 91.8334 187.458 91.77C185.898 91.7746 184.779 91.3977 184.118 90.6478C183.416 89.7121 183.217 88.4883 183.581 87.3706L184.567 82.8136C184.796 81.5208 185.491 80.3557 186.517 79.5411ZM204.829 93.864C203.421 93.9138 202.014 93.7501 200.657 93.3783C199.819 93.1599 199.124 92.5787 198.758 91.7917C198.45 90.8079 198.447 89.7519 198.747 88.7632L200.309 81.5857C200.503 80.4965 200.947 79.4671 201.608 78.58C202.261 77.8083 203.133 77.2539 204.106 76.9905C205.421 76.6204 206.785 76.4536 208.149 76.4956L212.578 76.459C213.42 76.365 214.255 76.6679 214.841 77.2793C215.288 78.0382 215.379 78.9577 215.091 79.794C214.879 80.7941 214.379 81.2933 213.603 81.2912C213.293 81.3257 212.989 81.1825 212.818 80.9202C212.66 80.5946 212.631 80.2194 212.74 79.8722C212.858 79.584 212.856 79.2608 212.737 78.9746C212.504 78.7802 212.201 78.6969 211.902 78.7465L207.59 78.7402C206.631 78.7164 205.673 78.7889 204.73 78.9569C204.178 79.0662 203.683 79.3673 203.331 79.8074C202.955 80.3683 202.7 81.0023 202.585 81.6676L201.058 88.7441C200.874 89.3553 200.853 90.0036 200.998 90.6238C201.223 91.085 201.667 91.3976 202.176 91.453C203.209 91.6274 204.257 91.7003 205.305 91.6705L209.034 91.6395C209.356 91.6652 209.678 91.5829 209.951 91.4056C210.173 91.1558 210.317 90.8448 210.364 90.5128C210.432 90.1195 210.619 89.7554 210.894 89.4681C211.149 89.2188 211.491 89.0829 211.844 89.0912C212.622 89.0847 212.902 89.5941 212.684 90.6195C212.532 91.5666 212.065 92.4351 211.357 93.0802C210.61 93.6548 209.686 93.9423 208.749 93.8903L204.829 93.864ZM230.75 77.6387C230.914 76.8903 230.538 76.5073 229.628 76.5147L219.036 76.4933C218.656 76.4716 218.28 76.5813 217.969 76.8042C217.685 77.0038 217.491 77.3069 217.429 77.6482C217.333 77.9413 217.404 78.263 217.616 78.486C217.872 78.7135 218.21 78.8259 218.551 78.7971L222.565 78.764L219.491 92.8743C219.389 93.1841 219.44 93.5235 219.628 93.7881C219.854 94.026 220.179 94.1443 220.506 94.1083C220.888 94.1137 221.263 93.9926 221.572 93.7637C221.857 93.5437 222.058 93.23 222.137 92.8777L225.187 78.801L229.144 78.7683C229.89 78.8813 230.597 78.3844 230.75 77.6387ZM234.16 85.3346L232.78 91.7126L243.414 91.7169C243.763 91.6828 244.111 91.7885 244.382 92.0108C244.588 92.2566 244.652 92.5923 244.551 92.8985C244.485 93.2202 244.295 93.5025 244.02 93.683C243.691 93.8823 243.312 93.9816 242.929 93.9689L231.07 93.9662C230.775 93.9884 230.493 93.8538 230.326 93.6117C230.166 93.307 230.138 92.9499 230.248 92.6225L233.427 77.9341C233.49 77.5616 233.666 77.2172 233.931 76.9486C234.173 76.7148 234.497 76.5882 234.832 76.5973L246.692 76.6C247.037 76.5716 247.381 76.6767 247.651 76.8939C247.865 77.1359 247.93 77.4759 247.821 77.7816C247.757 78.1068 247.566 78.3928 247.29 78.5745C246.962 78.7755 246.581 78.8722 246.198 78.852L235.564 78.8476L234.645 83.0491L241.859 83.0482C242.248 83.0168 242.635 83.1234 242.952 83.3496C243.188 83.575 243.271 83.9183 243.164 84.2286C243.007 84.9512 242.409 85.3 241.374 85.3002L234.16 85.3346ZM251.143 77.757L247.856 92.8922H247.848C247.634 93.75 247.927 94.1841 248.686 94.1778C248.936 94.1891 249.185 94.138 249.411 94.0291C249.683 93.8705 249.924 93.6671 250.127 93.4273L262.542 80.4829L259.906 92.9604C259.733 93.7592 260.034 94.168 260.81 94.1615C261.556 94.1989 262.198 93.6313 262.259 92.8822L265.546 77.747C265.726 76.8726 265.449 76.4216 264.706 76.4278C264.189 76.463 263.705 76.7059 263.365 77.102L250.767 90.1738L253.438 77.8387C253.669 76.9135 253.384 76.4374 252.599 76.4439C251.844 76.4207 251.203 76.9995 251.143 77.757ZM254.593 76.2511C254.928 76.8024 255.639 77.082 256.732 77.0729L260.002 76.9871C260.904 77.0578 261.799 76.7769 262.503 76.2026C263.185 75.4179 263.625 74.4519 263.771 73.4223L264.017 72.2704L261.68 72.2897L261.335 73.8706C261.308 74.1382 261.205 74.3927 261.038 74.6032C260.817 74.7277 260.563 74.7796 260.312 74.7519L257.467 74.7754C257.075 74.7786 256.866 74.73 256.774 74.63C256.681 74.5301 256.689 74.2866 256.771 73.8915L257.116 72.3106L254.771 72.3301L254.525 73.4904C254.221 74.3912 254.245 75.3697 254.593 76.2511Z" fill="white"></path> </svg> 